<?xml version="1.0" encoding="UTF-8" standalone="no"?>
<svg xmlns="http://www.w3.org/2000/svg" width="117" height="60" xmlns:xlink="http://www.w3.org/1999/xlink" version="1.1" viewBox="0 0 128 128">
	<defs>
		<radialGradient id="a" cx="66.706" cy="22.942" r="59.341" spreadMethod="pad" gradientUnits="userSpaceOnUse" fy="22.942" fx="66.706" gradientTransform="translate(-41.222 13.465) scale(1.27878)">
			<stop offset="0" stop-color="#06c"/>
			<stop offset="1" stop-color="#039"/>
		</radialGradient>
		<linearGradient id="e" x1="85.76" x2="85.76" y1="12.79" y2="44.682" gradientUnits="userSpaceOnUse" gradientTransform="translate(-41.222 13.465) scale(1.27878)">
			<stop offset="0" stop-color="#fff"/>
			<stop offset="1" stop-color="#0d3692"/>
		</linearGradient>
		<linearGradient id="i" x1="100.293" x2="182.824" y1="62.243" y2="62.243" xlink:href="#a" gradientTransform="translate(13.044 2.02)"/>
		<linearGradient id="g" x1="-61.091" x2="36.681" y1="64.264" y2="64.264" xlink:href="#a"/>
		<linearGradient id="g1" xlink:href="#g" gradientTransform="translate(-32.5)"/>
		<linearGradient id="i2" xlink:href="#i" gradientTransform="translate(-32.5)"/>
	</defs>
	<use width="100%" height="100%" xlink:href="#b" transform="translate(-32.5)"/>
	<path id="b" d="M24.405 117.14l-1.162 9.096h-3.917c-10.486 0-17.32-1.56-20.502-4.675-3.14-3.11-4.115-9.32-2.926-18.63l1.928-15.1c.812-6.36.237-10.76-1.725-13.2-1.96-2.44-5.93-3.66-11.91-3.66h-3.85l1.16-9.03h3.86c6.03 0 10.31-1.2 12.85-3.6 2.59-2.44 4.28-6.8 5.08-13.07L5.21 30.1c1.19-9.31 3.75-15.5 7.68-18.574 3.972-3.12 11.206-4.68 21.69-4.68h3.917l-1.15 9.036H33.05c-5.94 0-9.93.926-11.98 2.78-2.048 1.85-3.45 5.748-4.21 11.686l-2 15.67c-.845 6.61-2.427 11.414-4.746 14.404-2.28 2.99-5.8 5.01-10.568 6.063 4.53 1.137 7.55 3.2 9.065 6.19 1.52 2.99 1.85 7.77 1.01 14.34l-2 15.668c-.76 5.94-.35 9.835 1.23 11.688 1.58 1.86 5.33 2.78 11.27 2.78h4.3m108.64 0h4.43c5.9 0 9.85-.9 11.85-2.71 2.04-1.81 3.45-5.72 4.22-11.75l2-15.66c.84-6.57 2.4-11.35 4.68-14.34s5.83-5.05 10.65-6.19c-4.54-1.05-7.56-3.07-9.08-6.06-1.51-2.99-1.85-7.79-1-14.4l2-15.67c.77-5.98.36-9.87-1.22-11.68-1.53-1.85-5.25-2.78-11.14-2.78H146l1.152-9.03h3.98c10.487 0 17.28 1.56 20.377 4.68 3.14 3.08 4.12 9.27 2.93 18.57l-1.94 15.16c-.8 6.28-.22 10.64 1.74 13.08 1.97 2.4 5.94 3.6 11.92 3.6h3.91L188.92 71H185c-5.98 0-10.26 1.222-12.85 3.664-2.584 2.44-4.283 6.844-5.095 13.2l-1.93 15.1c-1.187 9.31-3.75 15.52-7.685 18.638-3.894 3.12-11.084 4.678-21.57 4.678h-3.98l1.16-9.1" opacity=".21"/>
	<use width="100%" height="100%" xlink:href="#c" transform="translate(-32.5)"/>
	<path id="c" fill="#06c" d="M20.092 112.404L18.93 121.5h-3.917c-10.486 0-17.32-1.558-20.502-4.674-3.14-3.117-4.11-9.33-2.92-18.636l1.93-15.098c.81-6.36.24-10.76-1.72-13.203-1.96-2.45-5.93-3.67-11.91-3.67h-3.85l1.16-9.04h3.86c6.02 0 10.3-1.2 12.84-3.6 2.59-2.45 4.28-6.8 5.08-13.08L.9 25.35c1.18-9.31 3.74-15.5 7.67-18.57 3.978-3.115 11.21-4.673 21.696-4.673h3.917l-1.15 9.033h-4.3c-5.94 0-9.93.93-11.98 2.78-2.04 1.85-3.45 5.75-4.202 11.69l-2 15.665c-.84 6.61-2.42 11.41-4.74 14.4-2.28 2.99-5.8 5.012-10.57 6.066 4.53 1.14 7.55 3.2 9.06 6.19 1.52 2.99 1.85 7.77 1.01 14.34l-2 15.67c-.76 5.94-.35 9.84 1.23 11.69 1.58 1.86 5.33 2.78 11.27 2.78h4.3m108.64 0h4.42c5.9 0 9.85-.9 11.85-2.71 2.04-1.81 3.45-5.72 4.22-11.75l2.01-15.66c.84-6.57 2.4-11.35 4.68-14.34s5.83-5.05 10.65-6.19c-4.54-1.05-7.56-3.07-9.08-6.06-1.51-2.99-1.84-7.79-1-14.4l2-15.66c.76-5.98.36-9.87-1.22-11.69-1.53-1.85-5.24-2.78-11.14-2.78h-4.42l1.16-9.03h3.98c10.49 0 17.28 1.56 20.38 4.68 3.147 3.08 4.125 9.27 2.936 18.58l-1.94 15.16c-.806 6.28-.225 10.64 1.74 13.08 1.964 2.4 5.94 3.61 11.92 3.6h3.915l-1.15 9.04h-3.92c-5.98 0-10.267 1.22-12.85 3.67-2.59 2.44-4.29 6.85-5.1 13.2l-1.926 15.1c-1.19 9.31-3.75 15.52-7.69 18.64-3.9 3.12-11.09 4.68-21.57 4.68h-3.98l1.16-9.09" opacity=".387"/>
	<circle cx="73.094" cy="65.694" r="49.367" fill="#999" opacity=".36"/>
	<circle cx="68.405" cy="62.831" r="49.367" fill="#06c"/>
	<circle cx="68.402" cy="62.119" r="45.789" fill="url(#a)"/>
	<path fill="#fff" d="M27.622 66.59c0-26.854 19.186-48.785 43.33-50.19-.842-.045-1.69-.073-2.547-.073-25.288 0-45.79 20.5-45.79 45.79 0 11.682 4.382 22.334 11.58 30.424-4.17-7.57-6.573-16.45-6.573-25.95z" opacity=".36"/>
	<path fill="url(#e)" d="M69.11 59.87c15.5 0 29.772-2.253 41.105-6.03-3.618-21.335-20.953-37.512-41.807-37.512-20.705 0-37.947 15.95-41.73 37.06 11.533 4.05 26.314 6.482 42.43 6.482z" opacity=".5"/>
	<path fill="#fff" d="M75.607 86.49c0 5.74 0 9.08 5.636 9.08v1.88H55.565v-1.88c5.742 0 5.742-3.34 5.742-9.08V61.02c0-5.532 0-9.29-5.742-9.29v-1.878h20.042V86.49zm-7.202-59.705c4.28 0 7.83 3.548 7.83 7.828s-3.55 7.83-7.83 7.83-7.827-3.55-7.827-7.83 3.548-7.828 7.827-7.828z"/>
	<g fill="url(#g)">
		<path id="h" d="M22.594 114.864l-1.16 9.097h-3.918c-10.486 0-17.322-1.55-20.504-4.67-3.14-3.11-4.114-9.33-2.926-18.63l1.93-15.1c.81-6.36.235-10.76-1.727-13.2-1.97-2.44-5.94-3.66-11.92-3.66h-3.86l1.155-9.04h3.854c6.02 0 10.292-1.2 12.84-3.6 2.58-2.44 4.277-6.8 5.08-13.08l1.94-15.16c1.19-9.31 3.75-15.5 7.672-18.57 3.98-3.115 11.207-4.674 21.697-4.674h3.91l-1.153 9.03h-4.29c-5.94 0-9.927.926-11.984 2.78-2.047 1.852-3.454 5.747-4.213 11.685l-2 15.66c-.84 6.613-2.41 11.414-4.74 14.404C6 61.13 2.49 63.15-2.28 64.2c4.523 1.14 7.55 3.2 9.06 6.19 1.506 2.99 1.846 7.77 1.007 14.34l-2 15.67c-.76 5.94-.358 9.84 1.226 11.69 1.572 1.86 5.325 2.78 11.265 2.78h4.29"/>
	</g>
	<use fill="url(#g1)" xlink:href="#h" transform="translate(-32.5)"/>
	<g fill="url(#i)">
		<path id="j" d="M98.667 114.864h4.422c5.89 0 9.83-.905 11.83-2.716 2.04-1.81 3.44-5.728 4.21-11.75l2-15.668c.84-6.57 2.39-11.35 4.67-14.34s5.824-5.052 10.64-6.19c-4.548-1.052-7.57-3.074-9.088-6.064-1.518-2.99-1.845-7.79-1-14.403l2-15.667c.764-5.98.352-9.876-1.227-11.687-1.53-1.86-5.245-2.78-11.145-2.78h-4.43l1.155-9.04h3.98c10.48 0 17.27 1.56 20.372 4.67 3.135 3.07 4.114 9.26 2.925 18.57l-1.937 15.16c-.8 6.27-.225 10.63 1.743 13.07 1.963 2.4 5.94 3.6 11.92 3.6h3.91l-1.154 9.03h-3.92c-5.98 0-10.268 1.22-12.86 3.66-2.58 2.44-4.283 6.84-5.095 13.2l-1.93 15.1c-1.186 9.3-3.75 15.52-7.678 18.63-3.894 3.11-11.084 4.67-21.566 4.67h-3.98l1.162-9.1"/>
	</g>
	<use fill="url(#i2)" xlink:href="#j" transform="translate(32.5)"/>
</svg>